<svg width="71" height="18" viewBox="0 0 71 18" fill="none" xmlns="http://www.w3.org/2000/svg">
<path d="M22.6305 12.237C22.5679 12.237 22.5146 12.2151 22.4708 12.1712C22.4269 12.1274 22.405 12.0741 22.405 12.0115V5.88494C22.405 5.8223 22.4269 5.76905 22.4708 5.7252C22.5146 5.68135 22.5679 5.65942 22.6305 5.65942H23.5044C23.567 5.65942 23.6203 5.68135 23.6641 5.7252C23.708 5.76905 23.7299 5.8223 23.7299 5.88494V11.1188H26.7086C26.7775 11.1188 26.8339 11.1407 26.8777 11.1846C26.9216 11.2284 26.9435 11.2848 26.9435 11.3537V12.0115C26.9435 12.0741 26.9216 12.1274 26.8777 12.1712C26.8339 12.2151 26.7775 12.237 26.7086 12.237H22.6305ZM29.1618 12.3309C28.8361 12.3309 28.5416 12.2683 28.2785 12.143C28.0154 12.0115 27.8056 11.8392 27.649 11.6262C27.4986 11.407 27.4235 11.1626 27.4235 10.8933C27.4235 10.4548 27.5989 10.1071 27.9497 9.85027C28.3067 9.58717 28.7766 9.41177 29.3591 9.32407L30.6465 9.13613V8.93881C30.6465 8.67571 30.5807 8.47211 30.4491 8.32803C30.3176 8.18395 30.0921 8.11191 29.7726 8.11191C29.5471 8.11191 29.3623 8.1589 29.2182 8.25286C29.0804 8.34056 28.977 8.45959 28.9081 8.60993C28.858 8.69137 28.786 8.73208 28.692 8.73208H27.9497C27.8808 8.73208 27.8275 8.71329 27.7899 8.67571C27.7586 8.63812 27.7429 8.588 27.7429 8.52536C27.7492 8.42513 27.7899 8.30298 27.8651 8.1589C27.9403 8.01482 28.0593 7.877 28.2222 7.74545C28.385 7.60764 28.5949 7.49175 28.8517 7.39778C29.1086 7.30381 29.4187 7.25683 29.782 7.25683C30.1766 7.25683 30.5086 7.30695 30.778 7.40718C31.0536 7.50114 31.2729 7.62956 31.4358 7.79243C31.5986 7.95531 31.7177 8.14637 31.7928 8.36562C31.868 8.58487 31.9056 8.81665 31.9056 9.06096V12.0115C31.9056 12.0741 31.8837 12.1274 31.8398 12.1712C31.796 12.2151 31.7427 12.237 31.6801 12.237H30.919C30.8501 12.237 30.7937 12.2151 30.7498 12.1712C30.7122 12.1274 30.6934 12.0741 30.6934 12.0115V11.645C30.612 11.764 30.5024 11.8768 30.3646 11.9833C30.2268 12.0835 30.0576 12.1681 29.8572 12.237C29.663 12.2996 29.4312 12.3309 29.1618 12.3309ZM29.4813 11.4383C29.7005 11.4383 29.8979 11.3913 30.0733 11.2973C30.2549 11.2034 30.3959 11.0593 30.4961 10.8651C30.6026 10.6646 30.6559 10.4141 30.6559 10.1134V9.91605L29.7162 10.0664C29.3466 10.1228 29.071 10.2136 28.8893 10.3389C28.7076 10.4642 28.6168 10.6177 28.6168 10.7993C28.6168 10.9371 28.6575 11.0562 28.739 11.1564C28.8267 11.2504 28.9363 11.3224 29.0678 11.3725C29.1994 11.4164 29.3372 11.4383 29.4813 11.4383ZM34.9622 12.3309C34.5863 12.3309 34.2637 12.2871 33.9943 12.1994C33.7312 12.1117 33.5151 12.0021 33.346 11.8705C33.1768 11.739 33.0516 11.6074 32.9701 11.4759C32.8887 11.3443 32.8448 11.2347 32.8386 11.147C32.8323 11.0781 32.8511 11.0248 32.8949 10.9872C32.9451 10.9434 32.9983 10.9215 33.0547 10.9215H33.797C33.8221 10.9215 33.844 10.9246 33.8628 10.9309C33.8816 10.9371 33.9066 10.9559 33.938 10.9872C34.0194 11.0562 34.104 11.1282 34.1917 11.2034C34.2856 11.2785 34.3953 11.3443 34.5205 11.4007C34.6458 11.4508 34.8024 11.4759 34.9904 11.4759C35.2347 11.4759 35.4383 11.4289 35.6011 11.3349C35.7703 11.2347 35.8548 11.0937 35.8548 10.9121C35.8548 10.7805 35.8173 10.674 35.7421 10.5926C35.6732 10.5112 35.5416 10.4391 35.3474 10.3765C35.1532 10.3076 34.8776 10.2355 34.5205 10.1604C34.1697 10.0789 33.8784 9.97556 33.6467 9.85027C33.4149 9.72498 33.2426 9.56837 33.1299 9.38044C33.0171 9.19251 32.9607 8.97326 32.9607 8.72269C32.9607 8.47838 33.0328 8.2466 33.1768 8.02735C33.3272 7.80183 33.5464 7.61703 33.8346 7.47295C34.129 7.32887 34.4924 7.25683 34.9246 7.25683C35.2629 7.25683 35.5573 7.30068 35.8079 7.38838C36.0584 7.46982 36.2652 7.57318 36.428 7.69847C36.5972 7.82376 36.7256 7.95217 36.8133 8.08373C36.901 8.20901 36.948 8.31864 36.9542 8.4126C36.9605 8.48151 36.9417 8.53789 36.8979 8.58174C36.854 8.61933 36.8039 8.63812 36.7475 8.63812H36.0522C36.0209 8.63812 35.9927 8.63186 35.9676 8.61933C35.9425 8.6068 35.9175 8.59114 35.8924 8.57234C35.8235 8.5097 35.7484 8.44393 35.6669 8.37502C35.5855 8.30611 35.4852 8.2466 35.3662 8.19648C35.2535 8.1401 35.1031 8.11191 34.9152 8.11191C34.6771 8.11191 34.4955 8.16516 34.3702 8.27166C34.2449 8.37189 34.1823 8.5003 34.1823 8.65691C34.1823 8.76341 34.2105 8.85737 34.2668 8.93881C34.3295 9.01398 34.4516 9.08602 34.6333 9.15493C34.815 9.22384 35.0906 9.29588 35.4602 9.37105C35.8799 9.44622 36.2119 9.55898 36.4562 9.70932C36.7068 9.8534 36.8822 10.0225 36.9824 10.2167C37.0889 10.4047 37.1422 10.6145 37.1422 10.8463C37.1422 11.1282 37.0576 11.3819 36.8885 11.6074C36.7256 11.8329 36.4813 12.0115 36.1555 12.143C35.8361 12.2683 35.4383 12.3309 34.9622 12.3309ZM38.3471 12.237C38.2844 12.237 38.2312 12.2151 38.1873 12.1712C38.1435 12.1274 38.1215 12.0741 38.1215 12.0115V5.79098C38.1215 5.72833 38.1435 5.67509 38.1873 5.63124C38.2312 5.58738 38.2844 5.56546 38.3471 5.56546H39.127C39.1896 5.56546 39.2429 5.58738 39.2867 5.63124C39.3306 5.67509 39.3525 5.72833 39.3525 5.79098V12.0115C39.3525 12.0741 39.3306 12.1274 39.2867 12.1712C39.2429 12.2151 39.1896 12.237 39.127 12.237H38.3471ZM42.7037 12.3309C42.0084 12.3309 41.4571 12.1305 41.0499 11.7296C40.6428 11.3287 40.4235 10.7586 40.3922 10.0194C40.3859 9.95676 40.3828 9.87846 40.3828 9.78449C40.3828 9.68426 40.3859 9.60596 40.3922 9.54958C40.4172 9.07976 40.5237 8.67257 40.7117 8.32803C40.9059 7.9835 41.1721 7.72039 41.5104 7.53873C41.8486 7.3508 42.2464 7.25683 42.7037 7.25683C43.2111 7.25683 43.6371 7.36333 43.9817 7.57631C44.3262 7.78304 44.5862 8.07433 44.7616 8.45019C44.937 8.81979 45.0247 9.24889 45.0247 9.73751V9.93484C45.0247 9.99748 45.0027 10.0507 44.9589 10.0946C44.915 10.1384 44.8587 10.1604 44.7898 10.1604H41.6701C41.6701 10.1604 41.6701 10.1698 41.6701 10.1885C41.6701 10.2073 41.6701 10.223 41.6701 10.2355C41.6764 10.4548 41.7171 10.6584 41.7923 10.8463C41.8737 11.028 41.9896 11.1752 42.1399 11.2879C42.2965 11.4007 42.4813 11.4571 42.6943 11.4571C42.8697 11.4571 43.0169 11.432 43.136 11.3819C43.255 11.3255 43.3521 11.2629 43.4273 11.194C43.5024 11.1251 43.5557 11.0687 43.587 11.0248C43.6434 10.9497 43.6872 10.9058 43.7186 10.8933C43.7561 10.8745 43.8094 10.8651 43.8783 10.8651H44.6864C44.749 10.8651 44.7992 10.8839 44.8367 10.9215C44.8806 10.9591 44.8994 11.006 44.8931 11.0624C44.8869 11.1626 44.8336 11.2848 44.7334 11.4289C44.6394 11.573 44.5016 11.7139 44.3199 11.8517C44.1383 11.9895 43.9096 12.1054 43.634 12.1994C43.3646 12.2871 43.0545 12.3309 42.7037 12.3309ZM41.6701 9.37105H43.7467V9.34286C43.7467 9.09855 43.706 8.88556 43.6246 8.7039C43.5432 8.52223 43.4241 8.37815 43.2675 8.27166C43.1109 8.16516 42.923 8.11191 42.7037 8.11191C42.4845 8.11191 42.2965 8.16516 42.1399 8.27166C41.9833 8.37815 41.8643 8.52223 41.7829 8.7039C41.7077 8.88556 41.6701 9.09855 41.6701 9.34286V9.37105ZM47.8732 12.3309C47.4973 12.3309 47.1747 12.2871 46.9054 12.1994C46.6423 12.1117 46.4261 12.0021 46.257 11.8705C46.0879 11.739 45.9626 11.6074 45.8811 11.4759C45.7997 11.3443 45.7559 11.2347 45.7496 11.147C45.7433 11.0781 45.7621 11.0248 45.806 10.9872C45.8561 10.9434 45.9093 10.9215 45.9657 10.9215H46.708C46.7331 10.9215 46.755 10.9246 46.7738 10.9309C46.7926 10.9371 46.8177 10.9559 46.849 10.9872C46.9304 11.0562 47.015 11.1282 47.1027 11.2034C47.1967 11.2785 47.3063 11.3443 47.4316 11.4007C47.5569 11.4508 47.7135 11.4759 47.9014 11.4759C48.1457 11.4759 48.3493 11.4289 48.5122 11.3349C48.6813 11.2347 48.7659 11.0937 48.7659 10.9121C48.7659 10.7805 48.7283 10.674 48.6531 10.5926C48.5842 10.5112 48.4527 10.4391 48.2585 10.3765C48.0643 10.3076 47.7886 10.2355 47.4316 10.1604C47.0808 10.0789 46.7895 9.97556 46.5577 9.85027C46.3259 9.72498 46.1536 9.56837 46.0409 9.38044C45.9281 9.19251 45.8717 8.97326 45.8717 8.72269C45.8717 8.47838 45.9438 8.2466 46.0879 8.02735C46.2382 7.80183 46.4575 7.61703 46.7456 7.47295C47.04 7.32887 47.4034 7.25683 47.8356 7.25683C48.1739 7.25683 48.4683 7.30068 48.7189 7.38838C48.9695 7.46982 49.1762 7.57318 49.3391 7.69847C49.5082 7.82376 49.6366 7.95217 49.7243 8.08373C49.812 8.20901 49.859 8.31864 49.8653 8.4126C49.8715 8.48151 49.8527 8.53789 49.8089 8.58174C49.765 8.61933 49.7149 8.63812 49.6585 8.63812H48.9632C48.9319 8.63812 48.9037 8.63186 48.8786 8.61933C48.8536 8.6068 48.8285 8.59114 48.8035 8.57234C48.7346 8.5097 48.6594 8.44393 48.5779 8.37502C48.4965 8.30611 48.3963 8.2466 48.2773 8.19648C48.1645 8.1401 48.0142 8.11191 47.8262 8.11191C47.5882 8.11191 47.4065 8.16516 47.2812 8.27166C47.1559 8.37189 47.0933 8.5003 47.0933 8.65691C47.0933 8.76341 47.1215 8.85737 47.1779 8.93881C47.2405 9.01398 47.3627 9.08602 47.5443 9.15493C47.726 9.22384 48.0016 9.29588 48.3712 9.37105C48.7909 9.44622 49.1229 9.55898 49.3673 9.70932C49.6178 9.8534 49.7932 10.0225 49.8935 10.2167C50 10.4047 50.0532 10.6145 50.0532 10.8463C50.0532 11.1282 49.9686 11.3819 49.7995 11.6074C49.6366 11.8329 49.3923 12.0115 49.0666 12.143C48.7471 12.2683 48.3493 12.3309 47.8732 12.3309ZM52.9401 12.237C52.8336 12.237 52.749 12.2088 52.6864 12.1524C52.6237 12.096 52.5799 12.0303 52.5548 11.9551L50.6379 5.94132C50.6254 5.91 50.6191 5.88181 50.6191 5.85675C50.6191 5.80664 50.6379 5.76279 50.6755 5.7252C50.7193 5.68135 50.7695 5.65942 50.8258 5.65942H51.991C52.0912 5.65942 52.1695 5.68761 52.2259 5.74399C52.2823 5.80037 52.3168 5.85362 52.3293 5.90373L53.6542 10.2449L54.9885 5.90373C55.0073 5.85362 55.0417 5.80037 55.0919 5.74399C55.1482 5.68761 55.2265 5.65942 55.3268 5.65942H56.4919C56.5483 5.65942 56.5953 5.68135 56.6329 5.7252C56.6767 5.76279 56.6987 5.80664 56.6987 5.85675C56.6987 5.88181 56.6924 5.91 56.6799 5.94132L54.763 11.9551C54.7379 12.0303 54.6941 12.096 54.6314 12.1524C54.575 12.2088 54.4905 12.237 54.3777 12.237H52.9401ZM57.8108 12.237C57.7419 12.237 57.6855 12.2151 57.6417 12.1712C57.5978 12.1274 57.5759 12.071 57.5759 12.0021V5.89434C57.5759 5.82543 57.5978 5.76905 57.6417 5.7252C57.6855 5.68135 57.7419 5.65942 57.8108 5.65942H60.4419C60.9618 5.65942 61.4128 5.74086 61.795 5.90373C62.1833 6.06034 62.484 6.29839 62.697 6.61787C62.9163 6.93735 63.0259 7.3414 63.0259 7.83002C63.0259 8.31237 62.9163 8.71016 62.697 9.02338C62.484 9.33659 62.1833 9.56837 61.795 9.71872C61.4128 9.86906 60.9618 9.94423 60.4419 9.94423H59.3237V12.0021C59.3237 12.071 59.2986 12.1274 59.2485 12.1712C59.2046 12.2151 59.1483 12.237 59.0794 12.237H57.8108ZM59.2955 8.64752H60.3949C60.6642 8.64752 60.8772 8.57861 61.0338 8.44079C61.1967 8.30298 61.2781 8.09312 61.2781 7.81123C61.2781 7.57318 61.2092 7.37272 61.0714 7.20985C60.9336 7.04698 60.7081 6.96554 60.3949 6.96554H59.2955V8.64752ZM64.1608 12.237C64.0919 12.237 64.0355 12.2151 63.9917 12.1712C63.9478 12.1274 63.9259 12.071 63.9259 12.0021V5.89434C63.9259 5.82543 63.9478 5.76905 63.9917 5.7252C64.0355 5.68135 64.0919 5.65942 64.1608 5.65942H65.1568C65.2633 5.65942 65.3385 5.68448 65.3824 5.7346C65.4325 5.77845 65.4638 5.8129 65.4763 5.83796L67.7691 9.45562V5.89434C67.7691 5.82543 67.791 5.76905 67.8349 5.7252C67.8787 5.68135 67.9351 5.65942 68.004 5.65942H69.1316C69.2005 5.65942 69.2569 5.68135 69.3007 5.7252C69.3446 5.76905 69.3665 5.82543 69.3665 5.89434V12.0021C69.3665 12.0647 69.3446 12.1211 69.3007 12.1712C69.2569 12.2151 69.2005 12.237 69.1316 12.237H68.1261C68.0259 12.237 67.9507 12.2119 67.9006 12.1618C67.8568 12.1117 67.8286 12.0772 67.8161 12.0585L65.5233 8.58174V12.0021C65.5233 12.071 65.5014 12.1274 65.4575 12.1712C65.4137 12.2151 65.3573 12.237 65.2884 12.237H64.1608Z" fill="#0B132A"/>
<path d="M15.1635 6.77544L15.1533 6.76521C15.1524 6.76464 15.1518 6.76388 15.1514 6.76299L8.75192 0.363388L2.35254 6.76283C2.3518 6.76357 2.35065 6.76505 2.35065 6.76505L2.34008 6.77528C1.36153 7.75933 0.739981 9.04224 0.574241 10.4201C0.408502 11.798 0.708085 13.1917 1.42536 14.3798C2.14265 15.5678 3.23646 16.482 4.53293 16.977C5.8294 17.472 7.25412 17.5194 8.58061 17.1116C8.69223 17.0775 8.81153 17.0775 8.92317 17.1116C10.2496 17.5192 11.6742 17.4718 12.9706 16.9768C14.267 16.4817 15.3607 15.5676 16.0779 14.3796C16.7951 13.1916 17.0948 11.798 16.9291 10.4202C16.7634 9.0424 16.1419 7.7595 15.1635 6.77544ZM4.62808 10.9955C4.59692 11.0266 4.57222 11.0636 4.55537 11.1043C4.53851 11.1449 4.52984 11.1886 4.52984 11.2326C4.54123 12.3621 4.86043 13.467 5.45309 14.4286C5.46655 14.4504 5.47277 14.4759 5.47087 14.5015C5.46896 14.527 5.45902 14.5513 5.44246 14.5709C5.42591 14.5905 5.40359 14.6043 5.3787 14.6104C5.35381 14.6165 5.32763 14.6146 5.30389 14.6049C4.85835 14.4175 4.45359 14.1451 4.11226 13.8029C3.41276 13.1033 3.01951 12.1546 3.01888 11.1653C3.01824 10.1759 3.41027 9.22675 4.10888 8.52627L8.75192 3.88366L13.3947 8.52627C14.0934 9.22667 14.4856 10.1758 14.4849 11.1653C14.4844 12.1546 14.091 13.1033 13.3915 13.8029C13.0502 14.1451 12.6454 14.4175 12.2 14.6049C12.1762 14.6146 12.15 14.6165 12.1251 14.6104C12.1002 14.6043 12.0779 14.5904 12.0613 14.5709C12.0448 14.5513 12.0348 14.527 12.0329 14.5014C12.031 14.4759 12.0372 14.4503 12.0507 14.4285C12.6434 13.467 12.9628 12.3621 12.9744 11.2326C12.9744 11.1886 12.9656 11.1449 12.9487 11.1042C12.9317 11.0635 12.907 11.0265 12.8757 10.9954L10.6796 8.66602C10.6577 8.64776 10.6302 8.63776 10.6017 8.63776C10.5733 8.63776 10.5457 8.64776 10.5239 8.66602C10.502 8.6842 10.4873 8.70957 10.4822 8.73758C10.477 8.76559 10.4819 8.79443 10.496 8.81922C11.3489 10.3627 10.6154 12.5797 9.39235 13.8029L9.3859 13.8094C9.21709 13.9764 8.98919 14.07 8.75175 14.0699C8.51428 14.0698 8.28644 13.976 8.11775 13.8089L8.11181 13.8029C6.88827 12.5797 6.15522 10.3629 7.00827 8.81955C7.0223 8.79476 7.02719 8.76592 7.02208 8.73791C7.01698 8.7099 7.00222 8.68453 6.98036 8.66635C6.9585 8.64809 6.93095 8.63809 6.90248 8.63809C6.87401 8.63809 6.84645 8.64809 6.82459 8.66635L4.62808 10.9955Z" fill="#F53838"/>
</svg>
